<?xml version="1.0" encoding="UTF-8"?>
<svg version="1.1" viewBox="0 0 996 800" width="249" height="200" xmlns="http://www.w3.org/2000/svg">
<path transform="translate(0)" d="m0 0h996v800h-996z" fill="#fff"/>
<path transform="translate(342,41)" d="m0 0h30l21 3 15 4 18 8 13 9 11 11 7 11 7 14 5 18 2 16v19l-2 19-5 23-10 30-11 24-11 21-20 30-10 13-9 11-13 15-20 20-8 7-14 12-18 13-21 13-16 8-17 8-14 5h-2l7 8 11 12 12 13 11 14 9 11 9 12 26 36 10 14 11 15 14 19 11 13 9 11 15 15 13 9 10 5 4 1h15l10-4 11-8 12-12 7-1 5 5 1 5-4 7-13 13-12 8-10 4-18 2-14-3-16-8-13-10-20-20-9-11-12-15-14-19-12-17-26-36-15-20-13-16-12-14-10-11-7-8-12-11-13 1-21 3-22 2-4 14-22 92-18 79-14 66-5 29v3l7-7h6l5 6v6l-11 23-8 11-7 4-6-1-5-4-2-8v-9l4-33 9-47 16-72 18-77 17-72v-5l-17-4-13-5-10-7-8-8-4-8-1-3v-12l4-8 8-7 9-4 5-1h17l20 4 7 2 2-10 14-58 14-56 21-87 10-43 4-5 6-1 5 3 2 4-2 12-12 52-13 54-28 114-7 29 5 2 15 8 18 12 7 5 9-2 19-7 24-11 24-14 18-13 11-9 14-12 20-20 9-11 11-14 10-14 13-20 12-22 7-15 8-21 6-20 4-21 1-8v-24l-3-17-4-12-7-13-7-8v-2l-4-2-11-8-15-7-16-4-17-2h-25l-27 3-24 5-25 7-20 7-21 9-36 18-23 15-11 7-12 9-13 11-10 9-11 11-9 11-9 12-8 13-8 17-5 18-1 6v25l5 19 5 13-1 6-5 3h-7l-4-5-5-12-5-18-1-8v-22l3-17 6-18 8-16 9-15 10-13 12-14 18-18 11-9 18-14 22-14 13-8 23-12 23-11 21-8 18-6 26-7 28-5z" fill="#030303"/>
<path transform="translate(703,67)" d="m0 0h7l5 3 4 6 1 4v12l-3 17-7 24-8 21-8 19-16 32-14 26-10 16-8 14-16 64-15 64-20 91-12 56-16 81-9 52v9l5 5v7l-5 13-7 8h-9l-4-4-1-4v-10l3-26 8-47 20-100 13-60 4-19v-3l-10 13-13 15-9 10-20 20-11 9-15 11-13 6-9 2h-11l-9-2-9-5-7-7-5-8-5-16-1-7v-23l4-25 6-22 9-25 8-18 10-17 10-13 4-5 10-8 9-4h10l6 5 3 7-1 11-5 12-10 16-9 10-7 8-20 20-10 8-5 16-4 23v25l3 11 4 8 6 5 7 2h8l13-5 12-8 13-11 17-16 7-8 10-11 11-14 12-15 10-14 6-9 8-33 17-73 16-64 11-42 10-33 10-27 11-25 9-16 7-9 6-5z" fill="#030303"/>
<path transform="translate(708,353)" d="m0 0h8l9 2 12 7 7 7 4 7-2 5-5 4-7-1-6-5v-2l-4-2-7-3h-11l-9 6-6 5-10 14-8 16-6 15-5 17-3 19v6l4-2 7-8 12-14 11-14 24-32 6-5 8 1 3 10 3 32 4 22 5 17 6 11 5 4 4 1 9-3 6-4 10-9 11-14 10-15 9-15 12-22 2-4v-8l-3-15v-10l4-6 6-1 5 3 2 4 3 19 7 22 3 8h2l8-11 13-14 7-8 14-14 11-9 11-8 6-3 5 1 5 6v5l-8 7-11 8-12 11-17 17-9 11-14 18-2 3 1 5 9 17 12 17 7 6 6 3 5-2 9-8 6 1 5 6-1 6-6 8-10 6-9 1-10-3-11-8-11-13-10-16-3-6v-2h-3l-2 5-16 24-11 18-14 24-11 19-4 4h-6l-6-5v-6l14-26 15-25 10-16 17-26 5-7v-6l-4-8v-2h-2l-3 9-12 21-11 16-9 11-12 13-8 6-12 6-4 1h-10l-10-4-6-5-7-10-5-11-5-17-4-22-2-12-14 18-22 26-7 8-9 6-5 2h-7l-6-4-4-5-2-9v-9l3-20 8-26 9-20 7-12 9-12 4-5 11-9 8-4z" fill="#030303"/>
<path transform="translate(130,388)" d="m0 0h15l16 4 6 3-1 8-4 16-1 1-10-1-12-3-12-6-7-8-1-7 5-5z" fill="#fff"/>
<path transform="translate(701,92)" d="m0 0h1l-1 9-7 25-13 33-8 18-8 16-3 3 1-6 9-31 9-25 9-22 9-17z" fill="#fff"/>
<path transform="translate(183,403)" d="m0 0 5 1 18 10 4 4-1 1-17 2h-12l1-10z" fill="#fff"/>
<path transform="translate(507,338)" d="m0 0 1 4-11 18-12 14-5 6-1-3 10-18 9-12z" fill="#fff"/>
</svg>
